<svg xmlns="http://www.w3.org/2000/svg" viewBox="0 0 200 200"><defs><style>.cls-1{fill:maroon;fill-rule:evenodd;}</style></defs><title>logo</title><g id="Layer_2" data-name="Layer 2"><g id="Layer_1-2" data-name="Layer 1"><path class="cls-1" d="M86.124,21.83367H21.83254V78.168h12.5v43.83143h-12.5V178.168H178.16685V121.83367h-12.5V77.99944h12.5V21.83367H113.87547L100.00113,49.528Zm35.51138,12.5h44.03146V65.668h-12.5v68.66568h12.5V165.668H109.33254V134.33367H90.49831V165.668H34.33254V134.33367h12.5V65.668h-12.5V34.33367H78.44971l21.59145,43.30287Z"/><polygon class="cls-1" points="43.834 43.834 43.834 56.334 56.334 56.334 56.334 143.834 43.834 143.834 43.834 156.334 81.334 156.334 81.334 143.834 68.834 143.834 68.834 63.705 93.834 113.925 93.834 124.999 106.334 124.999 106.334 113.925 131.334 63.705 131.334 143.834 118.834 143.834 118.834 156.334 156.334 156.334 156.334 143.834 143.834 143.834 143.834 56.334 156.334 56.334 156.334 43.834 127.471 43.834 100.082 98.608 72.697 43.834 43.834 43.834"/><path class="cls-1" d="M0,0V200H200V0ZM187.5,87.5H175v25h12.5v75H12.5v-75H25v-25H12.5v-75H91.92575L100,28.64859,108.07425,12.5H187.5Z"/></g></g></svg>