<svg id="Layer_1" data-name="Layer 1" xmlns="http://www.w3.org/2000/svg" viewBox="0 0 496.36914 385.52393"><defs><style>.cls-1{fill:#ccc;}.cls-2{fill:#fff;}.cls-3,.cls-4,.cls-5,.cls-6{fill:none;stroke:#000;stroke-miterlimit:10;}.cls-4{stroke-dasharray:5.05246 5.05246;}.cls-5{stroke-dasharray:5.06908 5.06908;}.cls-6{stroke-dasharray:4.99809 4.99809;}</style></defs><title>svideo-architecture-01</title><rect class="cls-1" x="20.86914" y="35.83545" width="115" height="67"/><path d="M197,94v66H83V94H197m1-1H82v68H198V93Z" transform="translate(-61.63086 -57.66455)"/><path d="M125.86035,118.38721h6.96192c2.66015,0,4.46093,1.63965,4.46093,4.10058a3.49978,3.49978,0,0,1-2.7207,3.72071v.05957c1.67969.501,2.16016,1.501,2.2998,3.6416.18067,2.33984.38086,3.06054.68067,3.26074V133.27H135.3623c-.33984-.28027-.37988-.96-.54-3.34082-.13965-2.10059-1.02051-2.86035-2.96094-2.86035h-3.96094V133.27h-2.04Zm2.04,7.041h4.26172c2.02051,0,3.02051-1.02051,3.02051-2.64062,0-1.74024-.82032-2.64063-2.9209-2.64063h-4.36133Z" transform="translate(-61.63086 -57.66455)"/><path d="M139.86035,118.38721h6.26172a4.2739,4.2739,0,0,1,4.62109,4.36035c0,2.74121-1.60058,4.40137-4.82128,4.40137h-4.001V133.27h-2.06055Zm2.06055,7.10156h3.80078c2.02051,0,2.98047-1.02051,2.98047-2.68066,0-1.74024-1.06055-2.64063-2.90039-2.64063H141.9209Z" transform="translate(-61.63086 -57.66455)"/><path d="M152.5,118.38721h1.94043v2.16015H152.5Zm.04,4.14062h1.86035V133.27H152.54Z" transform="translate(-61.63086 -57.66455)"/><path d="M61.63086,57.66455h2.64062l3.10059,8.082c.60059,1.62012,1.5,4.66065,1.5,4.66065h.04s.9209-3.02051,1.52051-4.66065l3.041-8.082h2.72071v14.8833H74.2334V63.5459c0-1.32031.12012-3.8208.12012-3.8208h-.04s-.59961,2.24072-1.04,3.40088l-3.6211,9.42187H68.05273L64.43164,63.126c-.41992-1.16016-1.04-3.40088-1.04-3.40088h-.04s.12012,2.50049.12012,3.8208v9.00195H61.63086Z" transform="translate(-61.63086 -57.66455)"/><path d="M78.55078,69.707c0-2.50049,1.84082-3.04053,4.6211-3.38037,1.58007-.18018,2.60058-.44043,2.60058-1.54053,0-1.16015-.82031-1.88037-2.30078-1.88037-1.7002,0-2.52051.80029-2.58008,2.08057H79.09082c.08008-1.82031,1.46094-3.44092,4.36133-3.44092a5.16315,5.16315,0,0,1,2.60058.58008,3.13594,3.13594,0,0,1,1.44043,2.9209v5.021c0,.86035.19922,1.32032,1.13965,1.12012h.08008v1.30029a3.14906,3.14906,0,0,1-1,.16016,1.72889,1.72889,0,0,1-1.90039-1.68066H85.792a4.20738,4.20738,0,0,1-3.60058,1.80078C80.15137,72.76807,78.55078,71.76758,78.55078,69.707ZM85.792,68.58691V66.82666a7.44237,7.44237,0,0,1-2.36035.76025c-1.75976.29981-2.91992.62012-2.91992,2.1001,0,1.38037,1.05957,1.7207,2.13965,1.7207A2.93313,2.93313,0,0,0,85.792,68.58691Z" transform="translate(-61.63086 -57.66455)"/><path d="M89.55078,69.28711h1.87988c.22071,1.56055,1.4209,2.08057,2.96094,2.08057,1.7002,0,2.4209-.74024,2.4209-1.70069,0-1.18017-.90039-1.48-2.80078-1.86035-2.10059-.43994-4.001-.87988-4.001-3.24072,0-1.84033,1.44043-3.00049,3.94043-3.00049,2.70117,0,4.041,1.26025,4.28125,3.12061H96.37207c-.16016-1.1001-.91992-1.72022-2.46094-1.72022-1.46,0-2.08008.68018-2.08008,1.50049,0,1.12012,1.04,1.34033,2.86036,1.70019,2.14062.41993,3.98144.90039,3.98144,3.40088,0,2.18018-1.80078,3.30078-4.32129,3.30078C91.39062,72.86816,89.71094,71.46777,89.55078,69.28711Z" transform="translate(-61.63086 -57.66455)"/><path d="M99.81055,61.80566h1.67968V58.4248h1.84082v3.38086h2.22071v1.44043h-2.22071v6.78125c0,.78028.41993,1,1.10059,1a3.91114,3.91114,0,0,0,.93945-.13964h.06055v1.56005a6.53294,6.53294,0,0,1-1.5.18018c-1.44043-.02-2.44141-.6001-2.44141-2.18066V63.24609H99.81055Z" transform="translate(-61.63086 -57.66455)"/><path d="M106.81055,67.18652c0-3.1206,2.06054-5.64111,5.1416-5.64111a4.53881,4.53881,0,0,1,3.68066,1.66064,6.85115,6.85115,0,0,1,1.32031,4.4209h-8.24218c.14062,2.1001,1.28027,3.70069,3.36133,3.70069a2.70628,2.70628,0,0,0,2.83984-1.84034h1.82031a4.47678,4.47678,0,0,1-4.68066,3.36084C108.751,72.84814,106.81055,70.32715,106.81055,67.18652Zm1.94043-.8999h6.22168c-.10059-2.06055-1.16016-3.30078-3.02051-3.30078C110.01172,62.98584,108.99121,64.38623,108.751,66.28662Z" transform="translate(-61.63086 -57.66455)"/><path d="M120.77148,63.74609h.05957a3.58447,3.58447,0,0,1,3.18067-2.08056,1.65731,1.65731,0,0,1,.68066.12011V63.5459h-.06054a2.25347,2.25347,0,0,0-.75977-.1001,3.0669,3.0669,0,0,0-3.081,3.26074v5.84131h-1.86036V61.80566h1.84082Z" transform="translate(-61.63086 -57.66455)"/><path d="M131.25,67.18652c0-3.1206,2.02051-5.64111,5.24121-5.64111a4.34015,4.34015,0,0,1,4.64063,3.76074h-1.86036a2.60076,2.60076,0,0,0-2.78027-2.26025c-2.20019,0-3.34082,1.82031-3.34082,4.14062,0,2.3208,1.14063,4.14112,3.34082,4.14112a2.60966,2.60966,0,0,0,2.82031-2.58057h1.84082a4.27478,4.27478,0,0,1-4.66113,4.10107C133.27051,72.84814,131.25,70.32715,131.25,67.18652Z" transform="translate(-61.63086 -57.66455)"/><path d="M142.4502,67.18652c0-3.1206,2.0205-5.64111,5.26171-5.64111,3.24024,0,5.22071,2.52051,5.22071,5.64111,0,3.14063-1.98047,5.66162-5.22071,5.66162C144.4707,72.84814,142.4502,70.32715,142.4502,67.18652Zm8.582,0c0-2.32031-1.14063-4.16064-3.34082-4.16064s-3.34082,1.84033-3.34082,4.16064c0,2.3208,1.14062,4.14112,3.34082,4.14112S151.03223,69.50732,151.03223,67.18652Z" transform="translate(-61.63086 -57.66455)"/><path d="M154.91016,61.80566H156.751v1.6001h.05957a3.57185,3.57185,0,0,1,3.18066-1.86035,2.78,2.78,0,0,1,2.78125,2.00049h.04a3.77114,3.77114,0,0,1,3.32031-2.00049,3.1708,3.1708,0,0,1,3.32031,3.501v7.50146h-1.86035v-7.3418a1.92553,1.92553,0,0,0-1.94043-2.10009,2.66689,2.66689,0,0,0-2.54,2.82031v6.62158h-1.84082v-7.3418a1.84433,1.84433,0,0,0-1.83984-2.10009,2.81588,2.81588,0,0,0-2.66113,2.82031v6.62158h-1.86035Z" transform="translate(-61.63086 -57.66455)"/><path d="M171.9502,61.80566H173.79v1.68018h.06055a3.88033,3.88033,0,0,1,3.42089-1.94043c2.74024,0,4.62012,2.12061,4.62012,5.66113,0,3.44092-1.78027,5.66162-4.68066,5.66162a3.83885,3.83885,0,0,1-3.38086-1.74072h-.05957c.01953.38037.04.98047.04,1.80029v3.26075H171.9502Zm8.041,5.44092c0-2.36035-.97949-4.1206-2.96-4.1206-2.28027,0-3.32129,1.84033-3.32129,4.1206,0,2.26074.9209,4.08106,3.30078,4.08106C178.99121,71.32764,179.99121,69.5874,179.99121,67.24658Z" transform="translate(-61.63086 -57.66455)"/><path d="M190.73145,72.54785V71.04736h-.04a3.70026,3.70026,0,0,1-3.24121,1.74073,3.34745,3.34745,0,0,1-3.64063-3.58106V61.80566h1.86035v7.30127a2.06221,2.06221,0,0,0,2.34082,2.16065,2.69818,2.69818,0,0,0,2.7002-2.92041V61.80566h1.86035V72.54785Z" transform="translate(-61.63086 -57.66455)"/><path d="M194.48926,61.80566h1.68066V58.4248h1.84082v3.38086h2.21973v1.44043h-2.21973v6.78125c0,.78028.41992,1,1.09961,1a3.92008,3.92008,0,0,0,.94043-.13964h.05957v1.56005a6.52656,6.52656,0,0,1-1.5.18018c-1.44043-.02-2.44043-.6001-2.44043-2.18066V63.24609h-1.68066Z" transform="translate(-61.63086 -57.66455)"/><path d="M201.49023,67.18652c0-3.1206,2.06055-5.64111,5.14063-5.64111a4.53609,4.53609,0,0,1,3.68066,1.66064,6.84555,6.84555,0,0,1,1.32032,4.4209h-8.24122c.13965,2.1001,1.28028,3.70069,3.36036,3.70069a2.70675,2.70675,0,0,0,2.84082-1.84034h1.82031a4.47752,4.47752,0,0,1-4.68066,3.36084C203.43066,72.84814,201.49023,70.32715,201.49023,67.18652Zm1.94043-.8999h6.22071c-.09961-2.06055-1.16016-3.30078-3.02051-3.30078C204.69043,62.98584,203.66992,64.38623,203.43066,66.28662Z" transform="translate(-61.63086 -57.66455)"/><path d="M215.4502,63.74609h.06054a3.58336,3.58336,0,0,1,3.18067-2.08056,1.65553,1.65553,0,0,1,.67968.12011V63.5459h-.05957a2.26274,2.26274,0,0,0-.76074-.1001,3.06616,3.06616,0,0,0-3.08008,3.26074v5.84131h-1.86035V61.80566h1.83985Z" transform="translate(-61.63086 -57.66455)"/><rect class="cls-2" x="20.86914" y="254.83545" width="115" height="67"/><path d="M197,313v66H83V313H197m1-1H82v68H198V312Z" transform="translate(-61.63086 -57.66455)"/><path d="M125.86035,337.38721h6.96192c2.66015,0,4.46093,1.63965,4.46093,4.10058a3.49978,3.49978,0,0,1-2.7207,3.72071v.05957c1.67969.501,2.16016,1.501,2.2998,3.6416.18067,2.33984.38086,3.06054.68067,3.26074V352.27H135.3623c-.33984-.28027-.37988-.96-.54-3.34082-.13965-2.10059-1.02051-2.86035-2.96094-2.86035h-3.96094V352.27h-2.04Zm2.04,7.041h4.26172c2.02051,0,3.02051-1.02051,3.02051-2.64062,0-1.74024-.82032-2.64063-2.9209-2.64063h-4.36133Z" transform="translate(-61.63086 -57.66455)"/><path d="M139.86035,337.38721h6.26172a4.2739,4.2739,0,0,1,4.62109,4.36035c0,2.74121-1.60058,4.40137-4.82128,4.40137h-4.001V352.27h-2.06055Zm2.06055,7.10156h3.80078c2.02051,0,2.98047-1.02051,2.98047-2.68066,0-1.74024-1.06055-2.64063-2.90039-2.64063H141.9209Z" transform="translate(-61.63086 -57.66455)"/><path d="M152.5,337.38721h1.94043v2.16015H152.5Zm.04,4.14062h1.86035V352.27H152.54Z" transform="translate(-61.63086 -57.66455)"/><path d="M83.541,400.66455h2.63964l3.10157,8.082c.59961,1.62012,1.5,4.66065,1.5,4.66065h.04s.91992-3.02051,1.5205-4.66065l3.04-8.082h2.72071v14.8833h-1.96V406.5459c0-1.32031.12012-3.8208.12012-3.8208h-.04s-.60058,2.24072-1.041,3.40088l-3.62012,9.42187H89.96191L86.34082,406.126c-.41992-1.16016-1.04-3.40088-1.04-3.40088h-.04s.12012,2.50049.12012,3.8208v9.00195H83.541Z" transform="translate(-61.63086 -57.66455)"/><path d="M107.76172,415.54785v-1.50049h-.04a3.69976,3.69976,0,0,1-3.24023,1.74073,3.347,3.347,0,0,1-3.64063-3.58106v-7.40137h1.86035v7.30127a2.06221,2.06221,0,0,0,2.34082,2.16065,2.69873,2.69873,0,0,0,2.7002-2.92041v-6.54151h1.86035v10.74219Z" transform="translate(-61.63086 -57.66455)"/><path d="M112.24023,400.66455h1.86036v14.8833h-1.86036Z" transform="translate(-61.63086 -57.66455)"/><path d="M116.05957,404.80566h1.68066V401.4248h1.84082v3.38086h2.21973v1.44043h-2.21973v6.78125c0,.78028.41993,1,1.09961,1a3.92,3.92,0,0,0,.94043-.13964h.05957v1.56a6.52656,6.52656,0,0,1-1.5.18018c-1.44043-.02-2.44043-.6001-2.44043-2.18066v-7.20118h-1.68066Z" transform="translate(-61.63086 -57.66455)"/><path d="M123.7002,400.66455h1.94042v2.16065H123.7002Zm.04,4.14111h1.86036v10.74219h-1.86036Z" transform="translate(-61.63086 -57.66455)"/><path d="M128.16016,404.80566H130v1.68018h.06055a3.88033,3.88033,0,0,1,3.4209-1.94043c2.74023,0,4.62011,2.12061,4.62011,5.66113,0,3.44092-1.78027,5.66162-4.68066,5.66162a3.83885,3.83885,0,0,1-3.38086-1.74072h-.05957c.01953.38037.04.98047.04,1.80029v3.26075h-1.86035Zm8.041,5.44092c0-2.36035-.97949-4.1206-2.96-4.1206-2.28027,0-3.32129,1.84033-3.32129,4.1206,0,2.26074.9209,4.08106,3.30078,4.08106C135.20117,414.32764,136.20117,412.5874,136.20117,410.24658Z" transform="translate(-61.63086 -57.66455)"/><path d="M140.13965,400.66455H142v14.8833h-1.86035Z" transform="translate(-61.63086 -57.66455)"/><path d="M144.03906,410.18652c0-3.1206,2.06055-5.64111,5.1416-5.64111a4.53883,4.53883,0,0,1,3.68067,1.66064,6.85121,6.85121,0,0,1,1.32031,4.4209h-8.24219c.14063,2.1001,1.28028,3.70069,3.36133,3.70069a2.70628,2.70628,0,0,0,2.83984-1.84034h1.82032a4.47679,4.47679,0,0,1-4.68067,3.36084C145.97949,415.84814,144.03906,413.32715,144.03906,410.18652Zm1.94043-.8999h6.22168c-.10058-2.06055-1.16015-3.30078-3.02051-3.30078C147.24023,405.98584,146.21973,407.38623,145.97949,409.28662Z" transform="translate(-61.63086 -57.66455)"/><path d="M160.79883,412.28711h1.88086c.21972,1.56055,1.41992,2.08057,2.96,2.08057,1.70117,0,2.4209-.74024,2.4209-1.70069,0-1.18017-.90039-1.48-2.80078-1.86035-2.10059-.43994-4.001-.87988-4.001-3.24072,0-1.84033,1.44043-3.00049,3.94141-3.00049,2.70019,0,4.041,1.26025,4.28027,3.12061h-1.86035c-.15918-1.1001-.91992-1.72022-2.46-1.72022-1.46,0-2.08106.68018-2.08106,1.50049,0,1.12012,1.041,1.34033,2.86133,1.70019,2.14062.41993,3.98047.90039,3.98047,3.40088,0,2.18018-1.79981,3.30078-4.32031,3.30078C162.63965,415.86816,160.959,414.46777,160.79883,412.28711Z" transform="translate(-61.63086 -57.66455)"/><path d="M171.97949,400.66455h1.86035v14.8833h-1.86035Z" transform="translate(-61.63086 -57.66455)"/><path d="M176.01855,412.707c0-2.50049,1.84083-3.04053,4.6211-3.38037,1.58008-.18018,2.60058-.44043,2.60058-1.54053,0-1.16015-.82031-1.88037-2.30078-1.88037-1.70019,0-2.5205.80029-2.58007,2.08057h-1.80079c.08008-1.82031,1.46094-3.44092,4.36133-3.44092a5.16321,5.16321,0,0,1,2.60059.58008,3.13594,3.13594,0,0,1,1.44043,2.9209v5.021c0,.86035.19922,1.32032,1.13965,1.12012h.08007v1.30029a3.149,3.149,0,0,1-1,.16016,1.72889,1.72889,0,0,1-1.90039-1.68066h-.0205a4.2074,4.2074,0,0,1-3.60059,1.80078C177.61914,415.76807,176.01855,414.76758,176.01855,412.707Zm7.24122-1.12012v-1.76025a7.44244,7.44244,0,0,1-2.36036.76025c-1.75976.29981-2.91992.62012-2.91992,2.1001,0,1.38037,1.05957,1.7207,2.13965,1.7207A2.93314,2.93314,0,0,0,183.25977,411.58691Z" transform="translate(-61.63086 -57.66455)"/><path d="M186.419,404.80566h1.98046l1.87989,5.80127c.46,1.44.98047,3.42041.98047,3.42041h.04s.46-1.98046.94043-3.42041l1.91993-5.80127h1.92089l-3.86132,10.74219h-2.06055Z" transform="translate(-61.63086 -57.66455)"/><path d="M196.67871,410.18652c0-3.1206,2.06055-5.64111,5.1416-5.64111a4.53883,4.53883,0,0,1,3.68067,1.66064,6.85121,6.85121,0,0,1,1.32031,4.4209H198.5791c.14063,2.1001,1.28028,3.70069,3.36133,3.70069a2.70628,2.70628,0,0,0,2.83984-1.84034h1.82032a4.4768,4.4768,0,0,1-4.68067,3.36084C198.61914,415.84814,196.67871,413.32715,196.67871,410.18652Zm1.94043-.8999h6.22168c-.10059-2.06055-1.16016-3.30078-3.02051-3.30078C199.87988,405.98584,198.85938,407.38623,198.61914,409.28662Z" transform="translate(-61.63086 -57.66455)"/><path d="M213.53906,410.18652c0-3.1206,2.02051-5.64111,5.24121-5.64111a4.34077,4.34077,0,0,1,4.64063,3.76074h-1.86035a2.6014,2.6014,0,0,0-2.78028-2.26025c-2.20117,0-3.34082,1.82031-3.34082,4.14062,0,2.3208,1.13965,4.14112,3.34082,4.14112a2.6102,2.6102,0,0,0,2.82032-2.58057h1.83984a4.27392,4.27392,0,0,1-4.66016,4.10107C215.55957,415.84814,213.53906,413.32715,213.53906,410.18652Z" transform="translate(-61.63086 -57.66455)"/><path d="M224.73828,410.18652c0-3.1206,2.02051-5.64111,5.26172-5.64111,3.24023,0,5.2207,2.52051,5.2207,5.64111,0,3.14063-1.98047,5.66162-5.2207,5.66162C226.75879,415.84814,224.73828,413.32715,224.73828,410.18652Zm8.582,0c0-2.32031-1.14062-4.16064-3.34082-4.16064s-3.34082,1.84033-3.34082,4.16064c0,2.3208,1.14063,4.14112,3.34082,4.14112S233.32031,412.50732,233.32031,410.18652Z" transform="translate(-61.63086 -57.66455)"/><path d="M237.19824,404.80566h1.84082v1.6001h.05957a3.57187,3.57187,0,0,1,3.18067-1.86035,2.78,2.78,0,0,1,2.78125,2.00049h.04a3.77112,3.77112,0,0,1,3.32031-2.00049,3.1708,3.1708,0,0,1,3.32031,3.501v7.50146h-1.86035v-7.3418a1.92554,1.92554,0,0,0-1.94043-2.10009,2.66689,2.66689,0,0,0-2.54,2.82031v6.62158h-1.84082v-7.3418a1.84433,1.84433,0,0,0-1.83984-2.10009,2.81588,2.81588,0,0,0-2.66114,2.82031v6.62158h-1.86035Z" transform="translate(-61.63086 -57.66455)"/><path d="M254.23828,404.80566h1.84082v1.68018h.05957a3.88262,3.88262,0,0,1,3.4209-1.94043c2.74023,0,4.62109,2.12061,4.62109,5.66113,0,3.44092-1.78027,5.66162-4.68066,5.66162a3.83772,3.83772,0,0,1-3.38086-1.74072h-.06055c.02051.38037.04.98047.04,1.80029v3.26075h-1.86035Zm8.042,5.44092c0-2.36035-.98047-4.1206-2.96093-4.1206-2.28028,0-3.32032,1.84033-3.32032,4.1206,0,2.26074.91993,4.08106,3.30078,4.08106C261.28027,414.32764,262.28027,412.5874,262.28027,410.24658Z" transform="translate(-61.63086 -57.66455)"/><path d="M273.01953,415.54785v-1.50049h-.04a3.69974,3.69974,0,0,1-3.24023,1.74073,3.347,3.347,0,0,1-3.64063-3.58106v-7.40137H267.959v7.30127a2.06222,2.06222,0,0,0,2.34082,2.16065A2.69873,2.69873,0,0,0,273,411.34717v-6.54151h1.86035v10.74219Z" transform="translate(-61.63086 -57.66455)"/><path d="M276.77832,404.80566H278.458V401.4248h1.84082v3.38086h2.2207v1.44043h-2.2207v6.78125c0,.78028.41992,1,1.10058,1a3.91131,3.91131,0,0,0,.93946-.13964h.06054v1.56a6.53288,6.53288,0,0,1-1.5.18018c-1.44043-.02-2.4414-.6001-2.4414-2.18066v-7.20118h-1.67969Z" transform="translate(-61.63086 -57.66455)"/><path d="M283.77832,410.18652c0-3.1206,2.06055-5.64111,5.1416-5.64111a4.53883,4.53883,0,0,1,3.68067,1.66064,6.85121,6.85121,0,0,1,1.32031,4.4209h-8.24219c.14063,2.1001,1.28027,3.70069,3.36133,3.70069a2.70628,2.70628,0,0,0,2.83984-1.84034h1.82032a4.4768,4.4768,0,0,1-4.68067,3.36084C285.71875,415.84814,283.77832,413.32715,283.77832,410.18652Zm1.94043-.8999h6.22168c-.10059-2.06055-1.16016-3.30078-3.02051-3.30078C286.97949,405.98584,285.959,407.38623,285.71875,409.28662Z" transform="translate(-61.63086 -57.66455)"/><path d="M297.73828,406.74609h.06055a3.58334,3.58334,0,0,1,3.18066-2.08056,1.65558,1.65558,0,0,1,.67969.12011v1.76026h-.05957a2.26274,2.26274,0,0,0-.76074-.1001,3.06616,3.06616,0,0,0-3.08008,3.26074v5.84131h-1.86035V404.80566h1.83984Z" transform="translate(-61.63086 -57.66455)"/><path d="M302.79785,412.28711h1.88086c.21973,1.56055,1.41992,2.08057,2.96,2.08057,1.70117,0,2.4209-.74024,2.4209-1.70069,0-1.18017-.90039-1.48-2.80078-1.86035-2.10059-.43994-4.001-.87988-4.001-3.24072,0-1.84033,1.44043-3.00049,3.94141-3.00049,2.70019,0,4.041,1.26025,4.28027,3.12061h-1.86035c-.15918-1.1001-.91992-1.72022-2.46-1.72022-1.46,0-2.08106.68018-2.08106,1.50049,0,1.12012,1.041,1.34033,2.86133,1.70019,2.14063.41993,3.98047.90039,3.98047,3.40088,0,2.18018-1.7998,3.30078-4.32031,3.30078C304.63867,415.86816,302.958,414.46777,302.79785,412.28711Z" transform="translate(-61.63086 -57.66455)"/><path d="M318.6582,410.18652c0-3.1206,2.02051-5.64111,5.24121-5.64111a4.34077,4.34077,0,0,1,4.64063,3.76074h-1.86035a2.6014,2.6014,0,0,0-2.78028-2.26025c-2.20117,0-3.34082,1.82031-3.34082,4.14062,0,2.3208,1.13965,4.14112,3.34082,4.14112a2.6102,2.6102,0,0,0,2.82032-2.58057h1.83984a4.27392,4.27392,0,0,1-4.66016,4.10107C320.67871,415.84814,318.6582,413.32715,318.6582,410.18652Z" transform="translate(-61.63086 -57.66455)"/><path d="M329.85742,410.18652c0-3.1206,2.02051-5.64111,5.26172-5.64111,3.24024,0,5.2207,2.52051,5.2207,5.64111,0,3.14063-1.98046,5.66162-5.2207,5.66162C331.87793,415.84814,329.85742,413.32715,329.85742,410.18652Zm8.582,0c0-2.32031-1.14062-4.16064-3.34082-4.16064s-3.34082,1.84033-3.34082,4.16064c0,2.3208,1.14063,4.14112,3.34082,4.14112S338.43945,412.50732,338.43945,410.18652Z" transform="translate(-61.63086 -57.66455)"/><path d="M344.1582,406.32568h.05957a3.96817,3.96817,0,0,1,3.40137-1.78027c2.24024,0,3.62012,1.26025,3.62012,3.501v7.50146h-1.83985v-7.28174a2.0776,2.0776,0,0,0-2.36035-2.16015,2.76258,2.76258,0,0,0-2.86133,2.90039v6.5415h-1.86035V404.80566h1.84082Z" transform="translate(-61.63086 -57.66455)"/><path d="M355.57812,406.32568h.05958a3.96815,3.96815,0,0,1,3.40136-1.78027c2.24024,0,3.62012,1.26025,3.62012,3.501v7.50146h-1.83984v-7.28174A2.0776,2.0776,0,0,0,358.459,406.106a2.76257,2.76257,0,0,0-2.86132,2.90039v6.5415H353.7373V404.80566h1.84082Z" transform="translate(-61.63086 -57.66455)"/><path d="M364.57715,410.18652c0-3.1206,2.06055-5.64111,5.1416-5.64111a4.53881,4.53881,0,0,1,3.68066,1.66064,6.85115,6.85115,0,0,1,1.32032,4.4209h-8.24219c.14062,2.1001,1.28027,3.70069,3.36133,3.70069a2.70628,2.70628,0,0,0,2.83984-1.84034H374.499a4.47678,4.47678,0,0,1-4.68066,3.36084C366.51758,415.84814,364.57715,413.32715,364.57715,410.18652Zm1.94043-.8999h6.22168c-.10059-2.06055-1.16016-3.30078-3.02051-3.30078C367.77832,405.98584,366.75781,407.38623,366.51758,409.28662Z" transform="translate(-61.63086 -57.66455)"/><path d="M376.11719,410.18652c0-3.1206,2.02051-5.64111,5.24121-5.64111a4.34014,4.34014,0,0,1,4.64062,3.76074h-1.86035a2.60076,2.60076,0,0,0-2.78027-2.26025c-2.2002,0-3.34082,1.82031-3.34082,4.14062,0,2.3208,1.14062,4.14112,3.34082,4.14112a2.60967,2.60967,0,0,0,2.82031-2.58057h1.84082a4.27478,4.27478,0,0,1-4.66113,4.10107C378.1377,415.84814,376.11719,413.32715,376.11719,410.18652Z" transform="translate(-61.63086 -57.66455)"/><path d="M387.2373,404.80566H388.918V401.4248h1.84082v3.38086h2.21973v1.44043h-2.21973v6.78125c0,.78028.41992,1,1.09961,1a3.92016,3.92016,0,0,0,.94043-.13964h.05957v1.56a6.52656,6.52656,0,0,1-1.5.18018c-1.44043-.02-2.44043-.6001-2.44043-2.18066v-7.20118H387.2373Z" transform="translate(-61.63086 -57.66455)"/><path d="M394.2373,410.18652c0-3.1206,2.06055-5.64111,5.14161-5.64111a4.53881,4.53881,0,0,1,3.68066,1.66064,6.85121,6.85121,0,0,1,1.32031,4.4209H396.1377c.14062,2.1001,1.28027,3.70069,3.36132,3.70069a2.70629,2.70629,0,0,0,2.83985-1.84034h1.82031a4.47678,4.47678,0,0,1-4.68066,3.36084C396.17773,415.84814,394.2373,413.32715,394.2373,410.18652Zm1.94043-.8999h6.22168c-.10058-2.06055-1.16015-3.30078-3.0205-3.30078C397.43848,405.98584,396.418,407.38623,396.17773,409.28662Z" transform="translate(-61.63086 -57.66455)"/><path d="M405.77734,410.20654c0-3.54052,2.041-5.66113,4.70118-5.66113a3.85876,3.85876,0,0,1,3.40039,1.90039h.04c-.04-.48-.05957-1.26025-.05957-1.98047v-3.80078h1.86035v14.8833h-1.84082v-1.54053h-.04a3.67887,3.67887,0,0,1-3.32032,1.86084C407.61816,415.86816,405.77734,413.66748,405.77734,410.20654Zm8.18164.02c0-2.42041-1.13964-4.1206-3.30078-4.1206-1.98047,0-2.98047,1.76025-2.98047,4.1206,0,2.36084,1,4.10108,2.98047,4.10108C412.959,414.32764,413.959,412.5874,413.959,410.22656Z" transform="translate(-61.63086 -57.66455)"/><path d="M422.51758,404.80566h1.98047l1.67968,5.96094c.33985,1.2207.7002,3.14111.7002,3.14111h.04s.36035-1.80078.7207-3.10107l1.62012-6.001h1.75976l1.60059,6.001c.29981,1.14063.68066,3.12109.68066,3.12109h.04a29.81566,29.81566,0,0,1,.7002-3.16113l1.78027-5.96094h1.91992l-3.501,10.74219h-1.86035l-1.58008-5.92139c-.25977-1.04-.67969-3.00048-.67969-3.00048h-.04s-.40039,1.98047-.66015,3.00048l-1.6211,5.92139H425.918Z" transform="translate(-61.63086 -57.66455)"/><path d="M439.17676,400.66455h1.94043v2.16065h-1.94043Zm.04,4.14111h1.86035v10.74219H439.2168Z" transform="translate(-61.63086 -57.66455)"/><path d="M442.97656,404.80566h1.68067V401.4248h1.84082v3.38086h2.21972v1.44043h-2.21972v6.78125c0,.78028.41992,1,1.09961,1a3.92016,3.92016,0,0,0,.94043-.13964h.05957v1.56a6.52663,6.52663,0,0,1-1.5.18018c-1.44043-.02-2.44043-.6001-2.44043-2.18066v-7.20118h-1.68067Z" transform="translate(-61.63086 -57.66455)"/><path d="M452.457,406.36572h.06055a3.957,3.957,0,0,1,3.44043-1.82031c2.24023,0,3.62109,1.26025,3.62109,3.501v7.50146h-1.84082v-7.28174a2.0776,2.0776,0,0,0-2.36035-2.16015,2.76234,2.76234,0,0,0-2.86035,2.90039v6.5415h-1.86035v-14.8833h1.86035v3.90088C452.51758,405.10547,452.47754,405.8457,452.457,406.36572Z" transform="translate(-61.63086 -57.66455)"/><path d="M467.65723,400.66455h2.63965l3.10156,8.082c.59961,1.62012,1.5,4.66065,1.5,4.66065h.04s.91992-3.02051,1.5205-4.66065l3.04-8.082h2.72071v14.8833h-1.96V406.5459c0-1.32031.12011-3.8208.12011-3.8208h-.04s-.60058,2.24072-1.041,3.40088l-3.62012,9.42187h-1.60059L470.457,406.126c-.41992-1.16016-1.04-3.40088-1.04-3.40088h-.04s.12012,2.50049.12012,3.8208v9.00195h-1.83984Z" transform="translate(-61.63086 -57.66455)"/><path d="M484.57715,412.707c0-2.50049,1.83984-3.04053,4.62012-3.38037,1.58105-.18018,2.60058-.44043,2.60058-1.54053,0-1.16015-.81933-1.88037-2.2998-1.88037-1.7002,0-2.52051.80029-2.58106,2.08057h-1.7998c.08008-1.82031,1.46-3.44092,4.36035-3.44092a5.1582,5.1582,0,0,1,2.60058.58008,3.13592,3.13592,0,0,1,1.44043,2.9209v5.021c0,.86035.2002,1.32032,1.14063,1.12012h.08008v1.30029a3.16084,3.16084,0,0,1-1.001.16016,1.72939,1.72939,0,0,1-1.90039-1.68066h-.01953a4.2087,4.2087,0,0,1-3.60059,1.80078C486.17676,415.76807,484.57715,414.76758,484.57715,412.707Zm7.24121-1.12012v-1.76025a7.45072,7.45072,0,0,1-2.36035.76025c-1.76074.29981-2.9209.62012-2.9209,2.1001,0,1.38037,1.06055,1.7207,2.14062,1.7207A2.93314,2.93314,0,0,0,491.81836,411.58691Z" transform="translate(-61.63086 -57.66455)"/><path d="M495.57617,412.28711H497.457c.21973,1.56055,1.41992,2.08057,2.96,2.08057,1.70117,0,2.4209-.74024,2.4209-1.70069,0-1.18017-.90039-1.48-2.80078-1.86035-2.10059-.43994-4.001-.87988-4.001-3.24072,0-1.84033,1.44043-3.00049,3.94141-3.00049,2.70019,0,4.041,1.26025,4.28027,3.12061h-1.86035c-.15918-1.1001-.91992-1.72022-2.46-1.72022-1.46,0-2.08105.68018-2.08105,1.50049,0,1.12012,1.041,1.34033,2.86132,1.70019,2.14063.41993,3.98047.90039,3.98047,3.40088,0,2.18018-1.7998,3.30078-4.32031,3.30078C497.417,415.86816,495.73633,414.46777,495.57617,412.28711Z" transform="translate(-61.63086 -57.66455)"/><path d="M505.83594,404.80566h1.68066V401.4248h1.84082v3.38086h2.21973v1.44043h-2.21973v6.78125c0,.78028.41992,1,1.09961,1a3.92008,3.92008,0,0,0,.94043-.13964h.05957v1.56a6.52656,6.52656,0,0,1-1.5.18018c-1.44043-.02-2.44043-.6001-2.44043-2.18066v-7.20118h-1.68066Z" transform="translate(-61.63086 -57.66455)"/><path d="M512.83691,410.18652c0-3.1206,2.06055-5.64111,5.14063-5.64111a4.5361,4.5361,0,0,1,3.68066,1.66064,6.84555,6.84555,0,0,1,1.32032,4.4209H514.7373c.13965,2.1001,1.28028,3.70069,3.36036,3.70069a2.70676,2.70676,0,0,0,2.84082-1.84034h1.82031a4.47753,4.47753,0,0,1-4.68067,3.36084C514.77734,415.84814,512.83691,413.32715,512.83691,410.18652Zm1.94043-.8999h6.22071c-.09961-2.06055-1.16016-3.30078-3.02051-3.30078C516.03711,405.98584,515.0166,407.38623,514.77734,409.28662Z" transform="translate(-61.63086 -57.66455)"/><path d="M526.79688,406.74609h.05957a3.58445,3.58445,0,0,1,3.18066-2.08056,1.65731,1.65731,0,0,1,.68066.12011v1.76026h-.06054a2.25347,2.25347,0,0,0-.75977-.1001,3.0669,3.0669,0,0,0-3.08105,3.26074v5.84131h-1.86036V404.80566h1.84083Z" transform="translate(-61.63086 -57.66455)"/><path d="M82.7002,434.18652c0-3.1206,2.0205-5.64111,5.24121-5.64111a4.34014,4.34014,0,0,1,4.64062,3.76074H90.72168a2.60077,2.60077,0,0,0-2.78027-2.26025c-2.2002,0-3.34082,1.82031-3.34082,4.14062,0,2.3208,1.14062,4.14112,3.34082,4.14112a2.60967,2.60967,0,0,0,2.82031-2.58057h1.84082a4.27479,4.27479,0,0,1-4.66113,4.10107C84.7207,439.84814,82.7002,437.32715,82.7002,434.18652Z" transform="translate(-61.63086 -57.66455)"/><path d="M93.90039,434.18652c0-3.1206,2.02051-5.64111,5.26172-5.64111,3.24023,0,5.2207,2.52051,5.2207,5.64111,0,3.14063-1.98047,5.66162-5.2207,5.66162C95.9209,439.84814,93.90039,437.32715,93.90039,434.18652Zm8.582,0c0-2.32031-1.14062-4.16064-3.34082-4.16064s-3.34082,1.84033-3.34082,4.16064c0,2.3208,1.14063,4.14112,3.34082,4.14112S102.48242,436.50732,102.48242,434.18652Z" transform="translate(-61.63086 -57.66455)"/><path d="M106.36035,428.80566h1.84082v1.6001h.05957a3.57187,3.57187,0,0,1,3.18067-1.86035,2.78,2.78,0,0,1,2.78125,2.00049h.04a3.77112,3.77112,0,0,1,3.32031-2.00049,3.1708,3.1708,0,0,1,3.32031,3.501v7.50146H119.043v-7.3418a1.92554,1.92554,0,0,0-1.94043-2.10009,2.66689,2.66689,0,0,0-2.54,2.82031v6.62158h-1.84082v-7.3418a1.84433,1.84433,0,0,0-1.83984-2.10009,2.81588,2.81588,0,0,0-2.66114,2.82031v6.62158h-1.86035Z" transform="translate(-61.63086 -57.66455)"/><path d="M123.40039,428.80566h1.83984v1.68018h.06055a3.88034,3.88034,0,0,1,3.4209-1.94043c2.74023,0,4.62012,2.12061,4.62012,5.66113,0,3.44092-1.78028,5.66162-4.68067,5.66162a3.83886,3.83886,0,0,1-3.38086-1.74072h-.05957c.01953.38037.04.98047.04,1.80029v3.26075h-1.86035Zm8.041,5.44092c0-2.36035-.9795-4.1206-2.96-4.1206-2.28028,0-3.32129,1.84033-3.32129,4.1206,0,2.26074.92089,4.08106,3.30078,4.08106C130.44141,438.32764,131.44141,436.5874,131.44141,434.24658Z" transform="translate(-61.63086 -57.66455)"/><path d="M142.18164,439.54785v-1.50049h-.04a3.70023,3.70023,0,0,1-3.24121,1.74073,3.34744,3.34744,0,0,1-3.64062-3.58106v-7.40137h1.86035v7.30127a2.06221,2.06221,0,0,0,2.34082,2.16065,2.69818,2.69818,0,0,0,2.70019-2.92041v-6.54151h1.86035v10.74219Z" transform="translate(-61.63086 -57.66455)"/><path d="M145.93945,428.80566h1.68067V425.4248h1.84082v3.38086h2.21972v1.44043h-2.21972v6.78125c0,.78028.41992,1,1.09961,1a3.92016,3.92016,0,0,0,.94043-.13964h.05957v1.56a6.52656,6.52656,0,0,1-1.5.18018c-1.44043-.02-2.44043-.6001-2.44043-2.18066v-7.20118h-1.68067Z" transform="translate(-61.63086 -57.66455)"/><path d="M152.94043,434.18652c0-3.1206,2.06055-5.64111,5.14062-5.64111a4.53611,4.53611,0,0,1,3.68067,1.66064,6.84555,6.84555,0,0,1,1.32031,4.4209h-8.24121c.13965,2.1001,1.28027,3.70069,3.36035,3.70069a2.70674,2.70674,0,0,0,2.84082-1.84034h1.82031a4.47751,4.47751,0,0,1-4.68066,3.36084C154.88086,439.84814,152.94043,437.32715,152.94043,434.18652Zm1.94043-.8999h6.2207c-.09961-2.06055-1.16015-3.30078-3.02051-3.30078C156.14062,429.98584,155.12012,431.38623,154.88086,433.28662Z" transform="translate(-61.63086 -57.66455)"/><path d="M166.90039,430.74609H166.96a3.58446,3.58446,0,0,1,3.18066-2.08056,1.65736,1.65736,0,0,1,.68067.12011v1.76026h-.06055a2.25338,2.25338,0,0,0-.75976-.1001,3.0669,3.0669,0,0,0-3.08106,3.26074v5.84131h-1.86035V428.80566h1.84082Z" transform="translate(-61.63086 -57.66455)"/><path d="M177.37988,434.18652c0-3.1206,2.02051-5.64111,5.26074-5.64111,3.24122,0,5.22168,2.52051,5.22168,5.64111,0,3.14063-1.98046,5.66162-5.22168,5.66162C179.40039,439.84814,177.37988,437.32715,177.37988,434.18652Zm8.58106,0c0-2.32031-1.13965-4.16064-3.33985-4.16064-2.20117,0-3.34082,1.84033-3.34082,4.16064,0,2.3208,1.13965,4.14112,3.34082,4.14112C184.82129,438.32764,185.96094,436.50732,185.96094,434.18652Z" transform="translate(-61.63086 -57.66455)"/><path d="M191.67969,430.32568h.06054a3.96645,3.96645,0,0,1,3.40039-1.78027c2.24024,0,3.6211,1.26025,3.6211,3.501v7.50146H196.9209v-7.28174a2.0776,2.0776,0,0,0-2.36035-2.16015,2.76234,2.76234,0,0,0-2.86035,2.90039v6.5415h-1.86036V428.80566h1.83985Z" transform="translate(-61.63086 -57.66455)"/><path d="M205.65918,424.66455h2.14062l2.14063,8.76221c.35937,1.46.70019,3.94043.70019,3.94043h.04s.39942-2.50049.7793-3.96045l2.40137-8.74219h2.16015l2.32032,8.74219c.37988,1.46.78027,3.96045.78027,3.96045h.04s.37988-2.48047.74023-3.94043l2.22071-8.76221h2.09961l-4.14063,14.8833h-1.98047l-2.44043-9.522c-.33984-1.32031-.70019-3.7207-.70019-3.7207h-.04s-.37988,2.40039-.71973,3.70068l-2.62109,9.542h-2.04Z" transform="translate(-61.63086 -57.66455)"/><path d="M225.83887,424.66455h1.94043v2.16065h-1.94043Zm.04,4.14111h1.86035v10.74219h-1.86035Z" transform="translate(-61.63086 -57.66455)"/><path d="M232.13965,430.74609h.05957a3.58446,3.58446,0,0,1,3.18066-2.08056,1.65739,1.65739,0,0,1,.68067.12011v1.76026H236a2.25344,2.25344,0,0,0-.75977-.1001,3.0669,3.0669,0,0,0-3.08105,3.26074v5.84131h-1.86035V428.80566h1.84082Z" transform="translate(-61.63086 -57.66455)"/><path d="M236.89941,434.18652c0-3.1206,2.06055-5.64111,5.14063-5.64111a4.5361,4.5361,0,0,1,3.68066,1.66064,6.84555,6.84555,0,0,1,1.32032,4.4209H238.7998c.13965,2.1001,1.28028,3.70069,3.36036,3.70069a2.70676,2.70676,0,0,0,2.84082-1.84034h1.82031a4.47753,4.47753,0,0,1-4.68067,3.36084C238.83984,439.84814,236.89941,437.32715,236.89941,434.18652Zm1.94043-.8999h6.22071c-.09961-2.06055-1.16016-3.30078-3.02051-3.30078C240.09961,429.98584,239.0791,431.38623,238.83984,433.28662Z" transform="translate(-61.63086 -57.66455)"/><path d="M249.0791,424.66455h1.86035v14.8833H249.0791Z" transform="translate(-61.63086 -57.66455)"/><path d="M252.97949,434.18652c0-3.1206,2.06055-5.64111,5.14063-5.64111a4.5361,4.5361,0,0,1,3.68066,1.66064,6.84555,6.84555,0,0,1,1.32031,4.4209h-8.24121c.13965,2.1001,1.28028,3.70069,3.36035,3.70069a2.70674,2.70674,0,0,0,2.84082-1.84034h1.82032a4.47753,4.47753,0,0,1-4.68067,3.36084C254.91992,439.84814,252.97949,437.32715,252.97949,434.18652Zm1.94043-.8999h6.2207c-.0996-2.06055-1.16015-3.30078-3.0205-3.30078C256.17969,429.98584,255.15918,431.38623,254.91992,433.28662Z" transform="translate(-61.63086 -57.66455)"/><path d="M264.419,436.28711h1.87988c.2207,1.56055,1.4209,2.08057,2.96094,2.08057,1.70019,0,2.42089-.74024,2.42089-1.70069,0-1.18017-.90039-1.48-2.80078-1.86035-2.10058-.43994-4.001-.87988-4.001-3.24072,0-1.84033,1.44043-3.00049,3.94043-3.00049,2.70117,0,4.041,1.26025,4.28125,3.12061h-1.86036c-.16015-1.1001-.91992-1.72022-2.46093-1.72022-1.46,0-2.08008.68018-2.08008,1.50049,0,1.12012,1.04,1.34033,2.86035,1.70019,2.14063.41993,3.98145.90039,3.98145,3.40088,0,2.18018-1.80079,3.30078-4.32129,3.30078C266.25879,439.86816,264.5791,438.46777,264.419,436.28711Z" transform="translate(-61.63086 -57.66455)"/><path d="M274.8584,436.28711h1.88086c.21972,1.56055,1.41992,2.08057,2.96,2.08057,1.70117,0,2.4209-.74024,2.4209-1.70069,0-1.18017-.90039-1.48-2.80078-1.86035-2.10059-.43994-4.001-.87988-4.001-3.24072,0-1.84033,1.44043-3.00049,3.94141-3.00049,2.70019,0,4.041,1.26025,4.28027,3.12061h-1.86035c-.15918-1.1001-.91992-1.72022-2.46-1.72022-1.46,0-2.08106.68018-2.08106,1.50049,0,1.12012,1.041,1.34033,2.86133,1.70019,2.14062.41993,3.98047.90039,3.98047,3.40088,0,2.18018-1.79981,3.30078-4.32031,3.30078C276.69922,439.86816,275.01855,438.46777,274.8584,436.28711Z" transform="translate(-61.63086 -57.66455)"/><path d="M291.55859,424.66455h2.04V437.6875h7.70215v1.86035h-9.74219Z" transform="translate(-61.63086 -57.66455)"/><path d="M307.73926,424.66455h2.28027l5.48145,14.8833h-2.24121l-1.4795-4.34082H305.919l-1.52051,4.34082h-2.10059Zm-1.26074,8.9419h4.76074l-1.41992-4.16065c-.5-1.44043-.90039-3.16064-.90039-3.16064h-.05957s-.44043,1.78027-.91993,3.16064Z" transform="translate(-61.63086 -57.66455)"/><path d="M317.418,424.66455h2.14062l6.10157,9.32227c.71972,1.10009,1.66015,2.96045,1.66015,2.96045h.05957s-.13965-1.94043-.13965-3.18067v-9.102h1.91993v14.8833H327.04l-6.08106-9.32178c-.7207-1.1206-1.70019-2.94091-1.70019-2.94091h-.04s.12012,1.94043.12012,3.14062v9.12207H317.418Z" transform="translate(-61.63086 -57.66455)"/><rect class="cls-2" x="170.86914" y="254.83545" width="115" height="67"/><path d="M347,313v66H233V313H347m1-1H232v68H348V312Z" transform="translate(-61.63086 -57.66455)"/><path d="M275.86035,337.38721h6.96192c2.66015,0,4.46093,1.63965,4.46093,4.10058a3.49978,3.49978,0,0,1-2.7207,3.72071v.05957c1.67969.501,2.16016,1.501,2.2998,3.6416.18067,2.33984.38086,3.06054.68067,3.26074V352.27H285.3623c-.33984-.28027-.37988-.96-.54-3.34082-.13965-2.10059-1.02051-2.86035-2.96094-2.86035h-3.96094V352.27h-2.04Zm2.04,7.041h4.26172c2.02051,0,3.02051-1.02051,3.02051-2.64062,0-1.74024-.82032-2.64063-2.9209-2.64063h-4.36133Z" transform="translate(-61.63086 -57.66455)"/><path d="M289.86035,337.38721h6.26172a4.2739,4.2739,0,0,1,4.62109,4.36035c0,2.74121-1.60058,4.40137-4.82128,4.40137h-4.001V352.27h-2.06055Zm2.06055,7.10156h3.80078c2.02051,0,2.98047-1.02051,2.98047-2.68066,0-1.74024-1.06055-2.64063-2.90039-2.64063H291.9209Z" transform="translate(-61.63086 -57.66455)"/><path d="M302.5,337.38721h1.94043v2.16015H302.5Zm.04,4.14062h1.86035V352.27H302.54Z" transform="translate(-61.63086 -57.66455)"/><rect class="cls-2" x="380.86914" y="254.83545" width="115" height="67"/><path d="M557,313v66H443V313H557m1-1H442v68H558V312Z" transform="translate(-61.63086 -57.66455)"/><path d="M485.86035,337.38721h6.96192c2.66015,0,4.46093,1.63965,4.46093,4.10058a3.49978,3.49978,0,0,1-2.7207,3.72071v.05957c1.67969.501,2.16016,1.501,2.2998,3.6416.18067,2.33984.38086,3.06054.68067,3.26074V352.27H495.3623c-.33984-.28027-.37988-.96-.54-3.34082-.13965-2.10059-1.02051-2.86035-2.96094-2.86035h-3.96094V352.27h-2.04Zm2.04,7.041h4.26172c2.02051,0,3.02051-1.02051,3.02051-2.64062,0-1.74024-.82032-2.64063-2.9209-2.64063h-4.36133Z" transform="translate(-61.63086 -57.66455)"/><path d="M499.86035,337.38721h6.26172a4.2739,4.2739,0,0,1,4.62109,4.36035c0,2.74121-1.60058,4.40137-4.82128,4.40137h-4.001V352.27h-2.06055Zm2.06055,7.10156h3.80078c2.02051,0,2.98047-1.02051,2.98047-2.68066,0-1.74024-1.06055-2.64063-2.90039-2.64063H501.9209Z" transform="translate(-61.63086 -57.66455)"/><path d="M512.5,337.38721h1.94043v2.16015H512.5Zm.04,4.14062h1.86035V352.27H512.54Z" transform="translate(-61.63086 -57.66455)"/><path d="M383.70605,346.55762h4.31934V350.957h-4.31934Z" transform="translate(-61.63086 -57.66455)"/><path d="M392.3457,346.55762H396.665V350.957H392.3457Z" transform="translate(-61.63086 -57.66455)"/><path d="M400.98486,346.55762h4.31934V350.957h-4.31934Z" transform="translate(-61.63086 -57.66455)"/><line class="cls-3" x1="79.86914" y1="102.83545" x2="81.61319" y2="104.62662"/><line class="cls-4" x1="85.13788" y1="108.24658" x2="224.36276" y2="251.23431"/><line class="cls-3" x1="226.12509" y1="253.04425" x2="227.86914" y2="254.83545"/><line class="cls-3" x1="79.86914" y1="102.83545" x2="79.85269" y2="105.33539"/><line class="cls-5" x1="79.81937" y1="110.40436" x2="78.9025" y2="249.80103"/><line class="cls-3" x1="78.88583" y1="252.33551" x2="78.86938" y2="254.83545"/><line class="cls-3" x1="79.86914" y1="102.83545" x2="82.1713" y2="103.81018"/><line class="cls-6" x1="86.77383" y1="105.75888" x2="434.26575" y2="252.88635"/><line class="cls-3" x1="436.56702" y1="253.86072" x2="438.86914" y2="254.83545"/></svg>