<svg xmlns="http://www.w3.org/2000/svg" viewBox="0 0 70 70"><defs><style>.cls-1{fill-rule:evenodd;}</style></defs><title>Asset 1</title><g id="Layer_2" data-name="Layer 2"><g id="Layer_1-2" data-name="Layer 1"><path class="cls-1" d="M30.14,7.64H7.64V27.36H12V42.7H7.64V62.36H62.36V42.64H58V27.3h4.38V7.64H39.86L35,17.33ZM42.57,12H58V23H53.61V47H58V58H38.27V47h-6.6V58H12V47h4.37V23H12V12H27.46L35,27.17Z"/><polygon class="cls-1" points="15.34 15.34 15.34 19.72 19.72 19.72 19.72 50.34 15.34 50.34 15.34 54.72 28.47 54.72 28.47 50.34 24.09 50.34 24.09 22.3 32.84 39.87 32.84 43.75 37.22 43.75 37.22 39.87 45.97 22.3 45.97 50.34 41.59 50.34 41.59 54.72 54.72 54.72 54.72 50.34 50.34 50.34 50.34 19.72 54.72 19.72 54.72 15.34 44.62 15.34 35.03 34.51 25.44 15.34 15.34 15.34"/><path class="cls-1" d="M0,0V70H70V0ZM65.63,30.62H61.25v8.76h4.38V65.62H4.38V39.38H8.75V30.62H4.38V4.38H32.17L35,10l2.83-5.65h27.8Z"/></g></g></svg>